<svg width="48" height="48" viewBox="0 0 48 48" fill="none" xmlns="http://www.w3.org/2000/svg">
<g clip-path="url(#clip0_4_2)">
<path d="M48 7.5V12C48 16.1438 37.2536 19.5 24 19.5C10.7464 19.5 0 16.1438 0 12V7.5C0 3.35625 10.7464 0 24 0C37.2536 0 48 3.35625 48 7.5ZM42.1286 20.1281C44.3571 19.4344 46.4036 18.5438 48 17.4469V27C48 31.1438 37.2536 34.5 24 34.5C10.7464 34.5 0 31.1438 0 27V17.4469C1.59643 18.5531 3.64286 19.4344 5.87143 20.1281C10.6821 21.6281 17.0893 22.5 24 22.5C30.9107 22.5 37.3179 21.6281 42.1286 20.1281ZM0 32.4469C1.59643 33.5531 3.64286 34.4344 5.87143 35.1281C10.6821 36.6281 17.0893 37.5 24 37.5C30.9107 37.5 37.3179 36.6281 42.1286 35.1281C44.3571 34.4344 46.4036 33.5438 48 32.4469V40.5C48 44.6438 37.2536 48 24 48C10.7464 48 0 44.6438 0 40.5V32.4469Z" fill="#FFD41B"/>
</g>
<defs>
<clipPath id="clip0_4_2">
<rect width="48" height="48" fill="white"/>
</clipPath>
</defs>
</svg>
