<svg width="48" height="48" viewBox="0 0 48 48" fill="none" xmlns="http://www.w3.org/2000/svg">
<g clip-path="url(#clip0_4_2)">
<path d="M47.25 33.7955C45.8001 34.6144 44.1208 35.2934 42.3518 35.8441C42.3517 35.8442 42.3516 35.8442 42.3515 35.8442L42.1286 35.1281C37.3179 36.6281 30.9107 37.5 24 37.5C17.0893 37.5 10.6821 36.6281 5.87143 35.1281L47.25 33.7955ZM47.25 33.7955V40.5C47.25 41.1863 46.8036 41.9778 45.6681 42.8168C44.5472 43.645 42.8773 44.4223 40.7464 45.088C36.4936 46.4168 30.5725 47.25 24 47.25C17.4275 47.25 11.5064 46.4168 7.25358 45.088C5.1227 44.4223 3.4528 43.645 2.33189 42.8168C1.19635 41.9778 0.75 41.1863 0.75 40.5V33.7993L47.25 33.7955ZM47.25 7.5V12C47.25 12.6863 46.8036 13.4778 45.6681 14.3168C44.5472 15.145 42.8773 15.9223 40.7464 16.588C36.4936 17.9168 30.5725 18.75 24 18.75C17.4275 18.75 11.5064 17.9168 7.25358 16.588C5.1227 15.9223 3.4528 15.145 2.33189 14.3168C1.19635 13.4778 0.75 12.6863 0.75 12V7.5C0.75 6.81369 1.19635 6.02218 2.33189 5.1832C3.4528 4.35503 5.1227 3.57774 7.25358 2.91197C11.5064 1.5832 17.4275 0.75 24 0.75C30.5725 0.75 36.4936 1.5832 40.7464 2.91197C42.8773 3.57774 44.5472 4.35503 45.6681 5.1832C46.8036 6.02218 47.25 6.81369 47.25 7.5ZM42.3515 20.8442C44.1206 20.2935 45.8 19.6144 47.25 18.7955V27C47.25 27.6863 46.8036 28.4778 45.6681 29.3168C44.5472 30.145 42.8773 30.9223 40.7464 31.588C36.4936 32.9168 30.5725 33.75 24 33.75C17.4275 33.75 11.5064 32.9168 7.25358 31.588C5.1227 30.9223 3.4528 30.145 2.33189 29.3168C1.19635 28.4778 0.75 27.6863 0.75 27V18.7993C2.20154 19.621 3.88161 20.2942 5.64851 20.8442C10.5492 22.3722 17.0349 23.25 24 23.25C30.9651 23.25 37.4508 22.3722 42.3515 20.8442Z" fill="#FFD41B" stroke="#171718" stroke-width="1.5"/>
</g>
<defs>
<clipPath id="clip0_4_2">
<rect width="48" height="48" fill="white"/>
</clipPath>
</defs>
</svg>
