<svg width="150" height="150" viewBox="0 0 150 150" fill="none" xmlns="http://www.w3.org/2000/svg">
<path d="M150 23.4375V37.5C150 50.4492 116.417 60.9375 75 60.9375C33.5826 60.9375 0 50.4492 0 37.5V23.4375C0 10.4883 33.5826 0 75 0C116.417 0 150 10.4883 150 23.4375ZM131.652 62.9004C138.616 60.7324 145.011 57.9492 150 54.5215V84.375C150 97.3242 116.417 107.812 75 107.812C33.5826 107.812 0 97.3242 0 84.375V54.5215C4.98884 57.9785 11.3839 60.7324 18.3482 62.9004C33.3817 67.5879 53.404 70.3125 75 70.3125C96.596 70.3125 116.618 67.5879 131.652 62.9004ZM0 101.396C4.98884 104.854 11.3839 107.607 18.3482 109.775C33.3817 114.463 53.404 117.188 75 117.188C96.596 117.188 116.618 114.463 131.652 109.775C138.616 107.607 145.011 104.824 150 101.396V126.562C150 139.512 116.417 150 75 150C33.5826 150 0 139.512 0 126.562V101.396Z" fill="#FFD41B"/>
</svg>
