<svg width="48" height="48" viewBox="0 0 48 48" fill="none" xmlns="http://www.w3.org/2000/svg">
<path d="M47.5 7.5V12C47.5 12.8028 46.9785 13.6594 45.8167 14.5179C44.6645 15.3691 42.9654 16.1566 40.821 16.8267C36.538 18.1648 30.5906 19 24 19C17.4094 19 11.462 18.1648 7.17902 16.8267C5.03455 16.1566 3.33546 15.3691 2.18334 14.5179C1.02145 13.6594 0.5 12.8028 0.5 12V7.5C0.5 6.69715 1.02145 5.84057 2.18334 4.98213C3.33546 4.13089 5.03455 3.34336 7.17902 2.67334C11.462 1.33516 17.4094 0.5 24 0.5C30.5906 0.5 36.538 1.33516 40.821 2.67334C42.9654 3.34336 44.6645 4.13089 45.8167 4.98213C46.9785 5.84057 47.5 6.69715 47.5 7.5ZM42.2774 20.6055C44.191 20.0098 45.99 19.2655 47.5 18.3609V27C47.5 27.8028 46.9785 28.6594 45.8167 29.5179C44.6645 30.3691 42.9654 31.1566 40.821 31.8267C36.538 33.1648 30.5906 34 24 34C17.4094 34 11.462 33.1648 7.17902 31.8267C5.03455 31.1566 3.33546 30.3691 2.18334 29.5179C1.02145 28.6594 0.5 27.8028 0.5 27V18.364C2.01124 19.273 3.81092 20.0104 5.72281 20.6055C10.5935 22.1242 17.053 23 24 23C30.9471 23 37.4067 22.1242 42.2774 20.6055ZM42.2774 35.6055C44.191 35.0098 45.99 34.2655 47.5 33.3609V40.5C47.5 41.3028 46.9785 42.1594 45.8167 43.0179C44.6645 43.8691 42.9654 44.6566 40.821 45.3267C36.538 46.6648 30.5906 47.5 24 47.5C17.4094 47.5 11.462 46.6648 7.17902 45.3267C5.03455 44.6566 3.33546 43.8691 2.18334 43.0179C1.02145 42.1594 0.5 41.3028 0.5 40.5V33.364C2.01124 34.273 3.81092 35.0104 5.72281 35.6055C10.5935 37.1242 17.053 38 24 38C30.9471 38 37.4067 37.1242 42.2774 35.6055Z" fill="#FFD41B" stroke="#171718"/>
</svg>
