<svg width="48" height="36" viewBox="0 0 48 36" fill="none" xmlns="http://www.w3.org/2000/svg">
<path d="M0 3C0 1.34062 1.53214 0 3.42857 0H44.5714C46.4679 0 48 1.34062 48 3C48 4.65938 46.4679 6 44.5714 6H3.42857C1.53214 6 0 4.65938 0 3ZM0 18C0 16.3406 1.53214 15 3.42857 15H44.5714C46.4679 15 48 16.3406 48 18C48 19.6594 46.4679 21 44.5714 21H3.42857C1.53214 21 0 19.6594 0 18ZM48 33C48 34.6594 46.4679 36 44.5714 36H3.42857C1.53214 36 0 34.6594 0 33C0 31.3406 1.53214 30 3.42857 30H44.5714C46.4679 30 48 31.3406 48 33Z" fill="#FFD41B"/>
</svg>
