<svg width="48" height="36" viewBox="0 0 48 36" fill="none" xmlns="http://www.w3.org/2000/svg">
<path d="M0.5 3C0.5 1.67739 1.74348 0.5 3.42857 0.5H44.5714C46.2565 0.5 47.5 1.67739 47.5 3C47.5 4.32261 46.2565 5.5 44.5714 5.5H3.42857C1.74348 5.5 0.5 4.32261 0.5 3ZM0.5 18C0.5 16.6774 1.74348 15.5 3.42857 15.5H44.5714C46.2565 15.5 47.5 16.6774 47.5 18C47.5 19.3226 46.2565 20.5 44.5714 20.5H3.42857C1.74348 20.5 0.5 19.3226 0.5 18ZM47.5 33C47.5 34.3226 46.2565 35.5 44.5714 35.5H3.42857C1.74348 35.5 0.5 34.3226 0.5 33C0.5 31.6774 1.74348 30.5 3.42857 30.5H44.5714C46.2565 30.5 47.5 31.6774 47.5 33Z" fill="#FFD41B" stroke="#171718"/>
</svg>
