<svg width="48" height="36" viewBox="0 0 48 36" fill="none" xmlns="http://www.w3.org/2000/svg">
<path d="M0.75 3C0.75 1.84578 1.84915 0.75 3.42857 0.75H44.5714C46.1508 0.75 47.25 1.84578 47.25 3C47.25 4.15422 46.1508 5.25 44.5714 5.25H3.42857C1.84915 5.25 0.75 4.15422 0.75 3ZM0.75 18C0.75 16.8458 1.84915 15.75 3.42857 15.75H44.5714C46.1508 15.75 47.25 16.8458 47.25 18C47.25 19.1542 46.1508 20.25 44.5714 20.25H3.42857C1.84915 20.25 0.75 19.1542 0.75 18ZM47.25 33C47.25 34.1542 46.1508 35.25 44.5714 35.25H3.42857C1.84915 35.25 0.75 34.1542 0.75 33C0.75 31.8458 1.84915 30.75 3.42857 30.75H44.5714C46.1508 30.75 47.25 31.8458 47.25 33Z" fill="#FFD41B" stroke="#171718" stroke-width="1.5"/>
</svg>
