<svg width="51" height="51" viewBox="0 0 51 51" fill="none" xmlns="http://www.w3.org/2000/svg">
<g clip-path="url(#clip0_13_6)">
<ellipse cx="24.8788" cy="25.5512" rx="24.8788" ry="25.5512" fill="#171718"/>
<path d="M4.86868 19.0968L4.96839 18.7828C7.69421 10.1969 15.7284 3.97781 25.2052 3.97781C25.5646 3.97781 25.9138 3.98809 26.2723 4.00858L26.6787 4.03181L26.8807 4.38525L27.1167 4.79834L4.86868 19.0968ZM4.86868 19.0968L5.03253 19.3827M4.86868 19.0968L5.03253 19.3827M5.03253 19.3827L5.95818 20.9977C6.87241 22.5948 8.37116 23.7743 10.1459 24.2814L10.1464 24.2815M5.03253 19.3827L10.1464 24.2815M10.1464 24.2815L15.8493 25.9067L15.8494 25.9068M10.1464 24.2815L15.8494 25.9068M15.8494 25.9068C17.2196 26.2971 18.1613 27.5478 18.1613 28.9776V32.9075C18.1613 34.2754 18.9327 35.5199 20.1518 36.1294C20.8632 36.4851 21.3131 37.2106 21.3131 38.0096V41.851C21.3131 43.8826 23.2546 45.3595 25.2142 44.7981C27.0578 44.2714 28.4873 42.7954 28.9563 40.9308L28.9566 40.9297M15.8494 25.9068L28.9566 40.9297M28.9566 40.9297L29.2324 39.8266L29.2326 39.8256M28.9566 40.9297L29.2326 39.8256M29.2326 39.8256C29.5967 38.3606 30.5509 37.1027 31.8596 36.357L29.2326 39.8256ZM19.2142 19.6033L19.2142 19.6032C18.6556 19.8795 18.392 20.5137 18.5878 21.1048C18.6864 21.3925 18.8907 21.6415 19.1579 21.7976C19.1587 21.798 19.1594 21.7984 19.1602 21.7989L22.5512 23.7352C22.5515 23.7353 22.5517 23.7355 22.5519 23.7356C23.3946 24.2132 24.3503 24.465 25.3135 24.465H29.5587C31.0106 24.465 32.4024 25.0478 33.428 26.0735L33.8122 26.4576C34.8378 27.4832 35.4206 28.875 35.4206 30.3269V31.1445C35.4206 33.1051 34.3724 34.9318 32.6574 35.9039L19.2142 19.6033ZM19.2142 19.6033L19.2216 19.5995M19.2142 19.6033L19.2216 19.5995M19.2216 19.5995L19.7982 19.3063C19.7989 19.306 19.7995 19.3056 19.8001 19.3053C20.2754 19.0683 20.8247 19.0282 21.3176 19.1972L21.3175 19.1972M19.2216 19.5995L21.3175 19.1972M21.3175 19.1972L21.3245 19.1995M21.3175 19.1972L21.3245 19.1995M21.3245 19.1995L23.6097 19.958L23.6113 19.9585M21.3245 19.1995L23.6113 19.9585M23.6113 19.9585C24.7352 20.3285 25.9746 19.9069 26.627 18.9235C27.2752 17.956 27.204 16.676 26.4617 15.7824L26.4606 15.7812M23.6113 19.9585L26.4606 15.7812M26.4606 15.7812L25.1214 14.1761C24.3696 13.2739 24.3795 11.9611 25.1422 11.0788L25.144 11.0767M26.4606 15.7812L25.144 11.0767M25.144 11.0767L26.6904 9.2742L26.6914 9.27303M25.144 11.0767L26.6914 9.27303M26.6914 9.27303C27.7625 8.01931 27.935 6.22779 27.1171 4.79894L26.6914 9.27303ZM31.8604 36.3565L32.6568 35.9043L31.8604 36.3565ZM42.8219 14.5219L40.3011 15.5361L40.3004 15.5364L40.3007 15.5362C38.3868 16.3045 37.3997 18.4362 38.0463 20.3881L38.0467 20.3895L39.7113 25.3832L39.712 25.3853C40.1371 26.6485 41.1717 27.6139 42.4685 27.9326C42.469 27.9328 42.4696 27.9329 42.4701 27.933L45.3326 28.6511L46.1474 28.8555L46.2585 28.0228C46.3487 27.3458 46.4057 26.6585 46.4295 25.965H46.4522V25.215C46.4522 21.4582 45.4718 17.9249 43.7568 14.8521L43.4348 14.2753L42.8219 14.5219ZM0.75 25.215C0.75 18.7265 3.32756 12.5037 7.91563 7.91563C12.5037 3.32756 18.7265 0.75 25.215 0.75C31.7035 0.75 37.9263 3.32756 42.5144 7.91563C47.1024 12.5037 49.68 18.7265 49.68 25.215C49.68 31.7035 47.1024 37.9263 42.5144 42.5144C37.9263 47.1024 31.7035 49.68 25.215 49.68C18.7265 49.68 12.5037 47.1024 7.91563 42.5144C3.32756 37.9263 0.75 31.7035 0.75 25.215Z" fill="#FECB00" stroke="#171718" stroke-width="1.5"/>
</g>
<defs>
<clipPath id="clip0_13_6">
<rect width="50.43" height="50.43" fill="white"/>
</clipPath>
</defs>
</svg>
