<svg width="57" height="44" viewBox="0 0 57 44" fill="none" xmlns="http://www.w3.org/2000/svg">
<path d="M54.964 37.3683L41.7244 42.6586V6.21462L53.771 1.39028C53.7713 1.39018 53.7715 1.39008 53.7717 1.38998C54.835 0.966578 55.9837 1.74595 55.9837 2.89008V35.8666C55.9837 36.5215 55.5827 37.1158 54.9659 37.3675C54.9652 37.3677 54.9646 37.368 54.964 37.3683ZM37.0725 6.50906V42.8995L19.6613 37.921V1.53053L37.0725 6.50906ZM1.76791 7.06252C1.76854 7.06226 1.76916 7.06201 1.76978 7.06176L15.0094 1.77142V38.2154L2.96274 43.0397C2.9624 43.0399 2.96207 43.04 2.96173 43.0401C1.89851 43.4633 0.75 42.684 0.75 41.5399V8.56345C0.75 7.90856 1.15105 7.3142 1.76791 7.06252Z" fill="#FECB00" stroke="#171718" stroke-width="1.5"/>
</svg>
