<svg width="51" height="51" viewBox="0 0 51 51" fill="none" xmlns="http://www.w3.org/2000/svg">
<path d="M4.86868 19.0968L4.96839 18.7828C7.69421 10.1969 15.7284 3.97781 25.2052 3.97781C25.5646 3.97781 25.9138 3.98809 26.2723 4.00858L26.6787 4.03181L26.8807 4.38525L27.1167 4.79834L4.86868 19.0968ZM4.86868 19.0968L5.03253 19.3827M4.86868 19.0968L5.03253 19.3827M5.03253 19.3827L5.95818 20.9977C5.95825 20.9978 5.95832 20.9979 5.95839 20.998C6.87264 22.595 8.3713 23.7744 10.1459 24.2814L10.1464 24.2815M5.03253 19.3827L10.1464 24.2815M10.1464 24.2815L15.8493 25.9067L15.8494 25.9068M10.1464 24.2815L15.8494 25.9068M15.8494 25.9068C17.2196 26.2971 18.1613 27.5478 18.1613 28.9776V32.9075C18.1613 34.2754 18.9327 35.5199 20.1518 36.1294C20.8632 36.4851 21.3131 37.2106 21.3131 38.0096V41.851C21.3131 43.8828 23.255 45.3598 25.2148 44.798C27.0581 44.2711 28.4874 42.7952 28.9563 40.9308L28.9566 40.9297M15.8494 25.9068L28.9566 40.9297M28.9566 40.9297L29.2324 39.8266L29.2326 39.8256M28.9566 40.9297L29.2326 39.8256M29.2326 39.8256C29.5968 38.3603 30.5512 37.1021 31.8604 36.3565L32.6568 35.9043C34.3721 34.9322 35.4206 33.1053 35.4206 31.1445V30.3269C35.4206 28.875 34.8378 27.4832 33.8122 26.4576L33.428 26.0735C32.4024 25.0478 31.0106 24.465 29.5587 24.465H25.3135C24.3505 24.465 23.3949 24.2133 22.5524 23.7358C22.552 23.7356 22.5516 23.7354 22.5512 23.7352L19.1602 21.7989C19.1594 21.7984 19.1587 21.798 19.1579 21.7976C18.8907 21.6415 18.6863 21.3924 18.5878 21.1046C18.392 20.5135 18.6556 19.8794 19.2142 19.6032L19.2142 19.6033M29.2326 39.8256L19.2142 19.6033M19.2142 19.6033L19.2216 19.5995M19.2142 19.6033L19.2216 19.5995M19.2216 19.5995L19.7982 19.3063C19.7989 19.3059 19.7996 19.3056 19.8002 19.3053C20.2754 19.0683 20.8247 19.0282 21.3176 19.1972L21.3175 19.1972M19.2216 19.5995L21.3175 19.1972M21.3175 19.1972L21.3245 19.1995M21.3175 19.1972L21.3245 19.1995M21.3245 19.1995L23.6097 19.958L23.6113 19.9585M21.3245 19.1995L23.6113 19.9585M23.6113 19.9585C24.7352 20.3285 25.9746 19.9069 26.627 18.9235C27.2752 17.956 27.204 16.676 26.4617 15.7824L26.4606 15.7812M23.6113 19.9585L26.4606 15.7812M26.4606 15.7812L25.1214 14.1761L26.4606 15.7812ZM25.144 11.0767L25.1422 11.0788C24.3796 11.961 24.3696 13.2736 25.1211 14.1757L25.144 11.0767ZM25.144 11.0767L26.6904 9.2742L26.6914 9.27303M25.144 11.0767L26.6914 9.27303M26.6914 9.27303C27.7625 8.01931 27.935 6.22779 27.1171 4.79894L26.6914 9.27303ZM42.8219 14.5219L40.3011 15.5361C40.301 15.5362 40.3008 15.5362 40.3007 15.5362C38.3868 16.3045 37.3997 18.4362 38.0463 20.3881L38.0467 20.3895L39.7113 25.3832L39.712 25.3853C40.1371 26.6485 41.1716 27.6138 42.4683 27.9326C42.4689 27.9327 42.4695 27.9329 42.4701 27.933L45.3326 28.6511L46.1474 28.8555L46.2585 28.0228C46.3487 27.3458 46.4057 26.6585 46.4295 25.965H46.4522V25.215C46.4522 21.4582 45.4718 17.9249 43.7568 14.8521L43.4348 14.2753L42.8219 14.5219ZM0.75 25.215C0.75 18.7265 3.32756 12.5037 7.91563 7.91563C12.5037 3.32756 18.7265 0.75 25.215 0.75C31.7035 0.75 37.9263 3.32756 42.5144 7.91563C47.1024 12.5037 49.68 18.7265 49.68 25.215C49.68 31.7035 47.1024 37.9263 42.5144 42.5144C37.9263 47.1024 31.7035 49.68 25.215 49.68C18.7265 49.68 12.5037 47.1024 7.91563 42.5144C3.32756 37.9263 0.75 31.7035 0.75 25.215Z" fill="#FECB00" stroke="#171718" stroke-width="1.5"/>
</svg>
