<svg width="51" height="48" viewBox="0 0 51 48" fill="none" xmlns="http://www.w3.org/2000/svg">
<path d="M33.0947 10.2056H33.8447V9.45563V5.51578C33.8447 4.66818 33.1543 3.97781 32.3067 3.97781H18.1233C17.2757 3.97781 16.5853 4.66818 16.5853 5.51578V9.45563V10.2056H17.3353H33.0947ZM12.6075 10.2056H13.3575V9.45563V5.51578C13.3575 2.88647 15.494 0.75 18.1233 0.75H32.3067C34.936 0.75 37.0725 2.88647 37.0725 5.51578V9.45563V10.2056H37.8225H44.1263C47.1889 10.2056 49.68 12.6967 49.68 15.7594V24.465H31.5187H18.9113H0.75V15.7594C0.75 12.6967 3.24105 10.2056 6.30375 10.2056H12.6075ZM32.2687 31.5187V29.1169H49.68V40.9744C49.68 44.0371 47.1889 46.5281 44.1263 46.5281H6.30375C3.24105 46.5281 0.75 44.0371 0.75 40.9744V29.1169H18.1613V31.5187C18.1613 33.6763 19.9055 35.4206 22.0631 35.4206H28.3669C30.5245 35.4206 32.2687 33.6763 32.2687 31.5187Z" fill="#FECB00" stroke="#171718" stroke-width="1.5"/>
</svg>
