<svg width="57" height="45" viewBox="0 0 57 45" fill="none" xmlns="http://www.w3.org/2000/svg">
<path d="M0.75 6.45561C0.75 3.39291 3.24105 0.901855 6.30375 0.901855H50.43C53.4927 0.901855 55.9837 3.39291 55.9837 6.45561V37.9744C55.9837 41.0371 53.4927 43.5281 50.43 43.5281H6.30375C3.24105 43.5281 0.75 41.0371 0.75 37.9744V6.45561ZM20.4872 24.6169H14.1834C9.4157 24.6169 5.55375 28.4788 5.55375 33.2465C5.55375 34.5275 6.59871 35.5725 7.87969 35.5725H26.7909C28.0719 35.5725 29.1169 34.5275 29.1169 33.2465C29.1169 28.4788 25.2549 24.6169 20.4872 24.6169ZM12.3476 10.9235C11.0247 12.2463 10.2816 14.0405 10.2816 15.9112C10.2816 17.782 11.0247 19.5761 12.3476 20.899C13.6704 22.2218 15.4645 22.965 17.3353 22.965C19.2061 22.965 21.0002 22.2218 22.3231 20.899C23.6459 19.5761 24.3891 17.782 24.3891 15.9112C24.3891 14.0405 23.6459 12.2463 22.3231 10.9235C21.0002 9.60064 19.2061 8.85748 17.3353 8.85748C15.4645 8.85748 13.6704 9.60064 12.3476 10.9235ZM48.8541 12.0094H36.2466C34.9656 12.0094 33.9206 13.0543 33.9206 14.3353C33.9206 15.6163 34.9656 16.6612 36.2466 16.6612H48.8541C50.135 16.6612 51.18 15.6163 51.18 14.3353C51.18 13.0543 50.135 12.0094 48.8541 12.0094ZM48.8541 18.3131H36.2466C34.9656 18.3131 33.9206 19.3581 33.9206 20.639C33.9206 21.92 34.9656 22.965 36.2466 22.965H48.8541C50.135 22.965 51.18 21.92 51.18 20.639C51.18 19.3581 50.135 18.3131 48.8541 18.3131ZM48.8541 24.6169H36.2466C34.9656 24.6169 33.9206 25.6618 33.9206 26.9428C33.9206 28.2238 34.9656 29.2687 36.2466 29.2687H48.8541C50.135 29.2687 51.18 28.2238 51.18 26.9428C51.18 25.6618 50.135 24.6169 48.8541 24.6169Z" fill="#FECB00" stroke="#171718" stroke-width="1.5"/>
</svg>
