<svg width="57" height="50" viewBox="0 0 57 50" fill="none" xmlns="http://www.w3.org/2000/svg">
<path d="M27.4946 30.2621L27.4972 30.2652C27.9435 30.829 28.7793 30.8352 29.2395 30.2616L27.4946 30.2621ZM27.4946 30.2621C25.922 28.2975 23.353 24.9414 21.1811 21.4172C20.0949 19.6549 19.117 17.8649 18.4127 16.1962C17.7032 14.515 17.2973 13.0164 17.2973 11.8195C17.2973 5.70345 22.2508 0.75 28.3669 0.75C34.483 0.75 39.4364 5.70345 39.4364 11.8195C39.4364 13.0164 39.0305 14.515 38.321 16.1962M27.4946 30.2621L38.321 16.1962M38.321 16.1962C37.6167 17.8649 36.6388 19.6549 35.5527 21.4172M38.321 16.1962L35.5527 21.4172M35.5527 21.4172C33.3809 24.941 30.8123 28.2968 29.2396 30.2615L35.5527 21.4172ZM54.964 43.1458L41.7244 48.4362V19.9169C42.0453 19.2757 42.3405 18.6354 42.6098 18.0038L42.6122 17.9981C42.6227 17.9731 42.633 17.9478 42.6432 17.9227L53.771 13.4716C53.7711 13.4716 53.7712 13.4715 53.7713 13.4715C54.8347 13.0477 55.9837 13.8271 55.9837 14.9714V41.6441C55.9837 42.299 55.5827 42.8934 54.9659 43.1451C54.9652 43.1453 54.9646 43.1456 54.964 43.1458ZM12.9985 14.6553C13.271 15.8107 13.6751 16.9458 14.1234 18.0025L14.1239 18.0038C14.3933 18.6354 14.6884 19.2757 15.0094 19.9169V43.993L2.96274 48.8173C1.89923 49.2414 0.75 48.4619 0.75 47.3175V20.6448C0.75 19.9899 1.15105 19.3955 1.76791 19.1438C1.76853 19.1436 1.76916 19.1433 1.76978 19.1431L12.9985 14.6553ZM32.8724 33.1695L32.873 33.1688C33.9412 31.8317 35.4832 29.8412 37.0725 27.5629V48.6771L19.6613 43.6985V27.5629C21.2505 29.8412 22.7926 31.8317 23.8607 33.1688L23.8613 33.1695C26.1807 36.0659 30.553 36.0659 32.8724 33.1695ZM28.3669 15.7214C29.6107 15.7214 30.8036 15.2273 31.6831 14.3478C32.5626 13.4683 33.0567 12.2754 33.0567 11.0316C33.0567 9.78774 32.5626 8.59486 31.6831 7.71534C30.8036 6.83583 29.6107 6.34172 28.3669 6.34172C27.1231 6.34172 25.9302 6.83583 25.0507 7.71534C24.1711 8.59486 23.677 9.78774 23.677 11.0316C23.677 12.2754 24.1711 13.4683 25.0507 14.3478C25.9302 15.2273 27.1231 15.7214 28.3669 15.7214Z" fill="#FECB00" stroke="#171718" stroke-width="1.5"/>
</svg>
