<svg width="48" height="48" viewBox="0 0 48 48" fill="none" xmlns="http://www.w3.org/2000/svg">
<path d="M25.6044 38.5C24.8567 36.595 23.8112 34.8961 22.5346 33.5H28.8H29.3V33V30C29.3 28.5069 30.247 27.5 31.2 27.5H36C36.953 27.5 37.9 28.5069 37.9 30V33V33.5H38.4H43.2H43.7V33V6V5.5H43.2H16.8H16.3V6V9.68123C15.1412 9.00673 13.8561 8.59632 12.5 8.51497V6C12.5 2.85689 14.527 0.5 16.8 0.5H43.2C45.473 0.5 47.5 2.85689 47.5 6V33C47.5 36.1431 45.473 38.5 43.2 38.5H25.6044ZM12 12.5C12.8622 12.5 13.72 12.7121 14.5254 13.1291C15.3315 13.5465 16.072 14.1624 16.7007 14.9484C17.3296 15.7345 17.8327 16.6732 18.1773 17.7131C18.5219 18.7529 18.7 19.8701 18.7 21C18.7 22.1299 18.5219 23.2471 18.1773 24.2869C17.8327 25.3268 17.3296 26.2655 16.7007 27.0516C16.072 27.8376 15.3315 28.4535 14.5254 28.8709C13.72 29.2879 12.8622 29.5 12 29.5C11.1378 29.5 10.28 29.2879 9.47458 28.8709C8.66847 28.4535 7.92803 27.8376 7.29927 27.0516C6.6704 26.2655 6.16728 25.3268 5.82269 24.2869C5.47813 23.2471 5.3 22.1299 5.3 21C5.3 19.8701 5.47813 18.7529 5.82269 17.7131C6.16728 16.6732 6.6704 15.7345 7.29927 14.9484C7.92803 14.1624 8.66847 13.5465 9.47458 13.1291C10.28 12.7121 11.1378 12.5 12 12.5ZM9.9975 33.5H13.995C19.1482 33.5 23.5 38.7634 23.5 45.4969C23.5 46.7101 22.732 47.5 21.9975 47.5H2.0025C1.26699 47.5 0.5 46.7181 0.5 45.4969C0.5 38.7631 4.85199 33.5 9.9975 33.5Z" fill="#FFD41B" stroke="#171718"/>
</svg>
