<svg width="48" height="48" viewBox="0 0 48 48" fill="none" xmlns="http://www.w3.org/2000/svg">
<g clip-path="url(#clip0_4_6)">
<path d="M12 6C12 2.69063 14.1525 0 16.8 0H43.2C45.8475 0 48 2.69063 48 6V33C48 36.3094 45.8475 39 43.2 39H25.26C24.375 36.6094 23.0175 34.5469 21.33 33H28.8V30C28.8 28.3406 29.8725 27 31.2 27H36C37.3275 27 38.4 28.3406 38.4 30V33H43.2V6H16.8V10.6031C15.39 9.58125 13.7475 9 12 9V6ZM12 12C12.9455 12 13.8818 12.2328 14.7553 12.6851C15.6289 13.1374 16.4226 13.8003 17.0912 14.636C17.7598 15.4718 18.2901 16.4639 18.6519 17.5558C19.0138 18.6478 19.2 19.8181 19.2 21C19.2 22.1819 19.0138 23.3522 18.6519 24.4442C18.2901 25.5361 17.7598 26.5282 17.0912 27.364C16.4226 28.1997 15.6289 28.8626 14.7553 29.3149C13.8818 29.7672 12.9455 30 12 30C11.0545 30 10.1182 29.7672 9.24468 29.3149C8.37114 28.8626 7.57741 28.1997 6.90883 27.364C6.24025 26.5282 5.7099 25.5361 5.34807 24.4442C4.98623 23.3522 4.8 22.1819 4.8 21C4.8 19.8181 4.98623 18.6478 5.34807 17.5558C5.7099 16.4639 6.24025 15.4718 6.90883 14.636C7.57741 13.8003 8.37114 13.1374 9.24468 12.6851C10.1182 12.2328 11.0545 12 12 12ZM9.9975 33H13.995C19.5225 33 24 38.5969 24 45.4969C24 46.875 23.1075 48 21.9975 48H2.0025C0.8925 48 0 46.8844 0 45.4969C0 38.5969 4.4775 33 9.9975 33Z" fill="#FFD41B"/>
</g>
<defs>
<clipPath id="clip0_4_6">
<rect width="48" height="48" fill="white"/>
</clipPath>
</defs>
</svg>
