<svg width="48" height="42" viewBox="0 0 48 42" fill="none" xmlns="http://www.w3.org/2000/svg">
<path d="M21.0773 40.5063C18.8651 39.6176 14.9855 38.25 12 38.25C8.66146 38.25 4.40668 39.4186 1.74733 40.4156C1.35747 40.5576 0.75 40.2328 0.75 39.5719V4.85625C0.75 3.94357 1.20374 3.21271 1.8074 2.94717C4.09957 1.95988 7.92781 0.75 12 0.75C16.6915 0.75 20.2608 2.56306 21.7497 3.89624L21.7552 3.90121L21.7609 3.90606C21.8305 3.96598 21.9167 4.1209 21.9167 4.36875V39.75C21.9167 40.4008 21.385 40.6269 21.0773 40.5063ZM21.0773 40.5063C21.0781 40.5066 21.0788 40.5069 21.0796 40.5072L20.8 41.2031L21.076 40.5058C21.0765 40.5059 21.0769 40.5061 21.0773 40.5063ZM46.2571 40.4173L46.255 40.4165C43.5958 39.4193 39.3395 38.25 36 38.25C33.014 38.25 29.1334 39.6181 26.9214 40.5068C26.6229 40.6258 26.0833 40.401 26.0833 39.75V4.36875C26.0833 4.13253 26.1713 3.96625 26.2475 3.89877L26.2503 3.89624C27.7392 2.56306 31.3085 0.75 36 0.75C40.0736 0.75 43.9025 1.96074 46.1926 2.95655L46.1965 2.95823C46.7945 3.21423 47.25 3.94069 47.25 4.85625V39.5719C47.25 40.2429 46.6356 40.5605 46.2571 40.4173Z" fill="#FFD41B" stroke="#171718" stroke-width="1.5"/>
</svg>
