<svg width="48" height="43" viewBox="0 0 48 43" fill="none" xmlns="http://www.w3.org/2000/svg">
<path d="M20.8 42.2031C21.7 42.5594 22.6667 41.8187 22.6667 40.75V5.36875C22.6667 4.975 22.5333 4.58125 22.25 4.3375C20.6167 2.875 16.8667 1 12 1C7.79167 1 3.85833 2.24687 1.50833 3.25937C0.566667 3.67187 0 4.72188 0 5.85625V40.5719C0 41.6875 1.06667 42.4656 2.00833 42.1188C4.63333 41.1344 8.79167 40 12 40C14.825 40 18.5833 41.3125 20.8 42.2031ZM27.2 42.2031C29.4167 41.3125 33.175 40 36 40C39.2083 40 43.3667 41.1344 45.9917 42.1188C46.9333 42.475 48 41.6875 48 40.5719V5.85625C48 4.72188 47.4333 3.67188 46.4917 3.26875C44.1417 2.24688 40.2083 1 36 1C31.1333 1 27.3833 2.875 25.75 4.3375C25.475 4.58125 25.3333 4.975 25.3333 5.36875V40.75C25.3333 41.8187 26.3083 42.5594 27.2 42.2031Z" fill="#FFD41B" stroke="#171718"/>
</svg>
