<svg width="48" height="48" viewBox="0 0 48 48" fill="none" xmlns="http://www.w3.org/2000/svg">
<g clip-path="url(#clip0_4_6)">
<path d="M25.774 38.25C25.0952 36.5677 24.185 35.0453 23.0876 33.75H28.8H29.55V33V30C29.55 28.59 30.4342 27.75 31.2 27.75H36C36.7658 27.75 37.65 28.59 37.65 30V33V33.75H38.4H43.2H43.95V33V6V5.25H43.2H16.8H16.05V6V9.25777C15.0277 8.72368 13.9164 8.385 12.75 8.28275V6C12.75 2.94002 14.7142 0.75 16.8 0.75H43.2C45.2858 0.75 47.25 2.94001 47.25 6V33C47.25 36.06 45.2858 38.25 43.2 38.25H25.774ZM12 12.75C12.8206 12.75 13.6391 12.9517 14.4105 13.3511C15.1829 13.751 15.8967 14.3435 16.5055 15.1046C17.1145 15.8658 17.604 16.7779 17.94 17.7918C18.2759 18.8055 18.45 19.896 18.45 21C18.45 22.104 18.2759 23.1945 17.94 24.2082C17.604 25.2221 17.1145 26.1342 16.5055 26.8954C15.8967 27.6565 15.1829 28.249 14.4105 28.6489C13.6391 29.0483 12.8206 29.25 12 29.25C11.1794 29.25 10.3609 29.0483 9.58952 28.6489C8.81713 28.249 8.10333 27.6565 7.49448 26.8954C6.88548 26.1342 6.39596 25.2221 6.06 24.2082C5.72407 23.1945 5.55 22.104 5.55 21C5.55 19.896 5.72407 18.8055 6.06 17.7918C6.39596 16.7779 6.88548 15.8658 7.49448 15.1046C8.10333 14.3435 8.81713 13.751 9.58952 13.3511C10.3609 12.9517 11.1794 12.75 12 12.75ZM9.9975 33.75H13.995C18.9611 33.75 23.25 38.8467 23.25 45.4969C23.25 46.6276 22.5442 47.25 21.9975 47.25H2.0025C1.45424 47.25 0.75 46.635 0.75 45.4969C0.75 38.8463 5.03924 33.75 9.9975 33.75Z" fill="#FFD41B" stroke="#171718" stroke-width="1.5"/>
</g>
<defs>
<clipPath id="clip0_4_6">
<rect width="48" height="48" fill="white"/>
</clipPath>
</defs>
</svg>
