<svg width="48" height="42" viewBox="0 0 48 42" fill="none" xmlns="http://www.w3.org/2000/svg">
<path d="M21.9164 3.71007L21.9165 3.71C20.3794 2.3337 16.7499 0.5 12 0.5C7.88239 0.5 4.01908 1.72224 1.70764 2.71794C0.991404 3.03245 0.5 3.86965 0.5 4.85625V39.5719C0.5 40.3844 1.26058 40.8602 1.83418 40.6501C1.83462 40.6499 1.83506 40.6497 1.8355 40.6496L2.00833 41.1188L21.9164 3.71007ZM21.9164 3.71007L21.9239 3.71654M21.9164 3.71007L21.9239 3.71654M21.9239 3.71654C22.0648 3.83774 22.1667 4.07227 22.1667 4.36875V39.75C22.1667 40.5404 21.4896 40.9378 20.9847 40.7385L21.9239 3.71654ZM46.1686 40.6511L46.1672 40.6506C43.5194 39.6577 39.2958 38.5 36 38.5C33.0677 38.5 29.2281 39.8495 27.0145 40.7388C26.5183 40.9371 25.8333 40.5404 25.8333 39.75V4.36875C25.8333 4.08002 25.9392 3.83792 26.0817 3.71168L26.0835 3.71C27.6206 2.3337 31.2501 0.5 36 0.5C40.1185 0.5 43.9823 1.72278 46.2923 2.72728L46.2949 2.7284C47.0074 3.03344 47.5 3.86775 47.5 4.85625V39.5719C47.5 40.3911 46.7348 40.8653 46.1686 40.6511Z" fill="#FFD41B" stroke="#171718"/>
</svg>
