<svg width="48" height="42" viewBox="0 0 48 42" fill="none" xmlns="http://www.w3.org/2000/svg">
<path d="M20.8 41.2031C21.7 41.5594 22.6667 40.8187 22.6667 39.75V4.36875C22.6667 3.975 22.5333 3.58125 22.25 3.3375C20.6167 1.875 16.8667 0 12 0C7.79167 0 3.85833 1.24687 1.50833 2.25937C0.566667 2.67187 0 3.72188 0 4.85625V39.5719C0 40.6875 1.06667 41.4656 2.00833 41.1188C4.63333 40.1344 8.79167 39 12 39C14.825 39 18.5833 40.3125 20.8 41.2031ZM27.2 41.2031C29.4167 40.3125 33.175 39 36 39C39.2083 39 43.3667 40.1344 45.9917 41.1188C46.9333 41.475 48 40.6875 48 39.5719V4.85625C48 3.72188 47.4333 2.67188 46.4917 2.26875C44.1417 1.24688 40.2083 0 36 0C31.1333 0 27.3833 1.875 25.75 3.3375C25.475 3.58125 25.3333 3.975 25.3333 4.36875V39.75C25.3333 40.8187 26.3083 41.5594 27.2 41.2031Z" fill="#FFD41B"/>
</svg>
