<svg width="38" height="51" viewBox="0 0 38 51" fill="none" xmlns="http://www.w3.org/2000/svg">
<g clip-path="url(#clip0_11_2)">
<path opacity="0.1" d="M18.75 50.428C25.6536 50.428 31.25 49.3087 31.25 47.928C31.25 46.5473 25.6536 45.428 18.75 45.428C11.8464 45.428 6.25 46.5473 6.25 47.928C6.25 49.3087 11.8464 50.428 18.75 50.428Z" fill="#2F2F30"/>
<path d="M18.75 48.715C18.366 48.7176 17.9872 48.6257 17.6471 48.4472C17.3071 48.2688 17.0161 48.0095 16.8 47.692C14.39 44.192 12.361 41.292 10.571 38.74C2.442 27.137 0.75 24.722 0.75 18.75C0.75 13.9761 2.6464 9.3978 6.0221 6.0221C9.3977 2.6465 13.9761 0.75 18.75 0.75C23.5239 0.75 28.1023 2.6465 31.4779 6.0221C34.8536 9.3978 36.75 13.9761 36.75 18.75C36.75 24.722 35.058 27.137 26.93 38.74C25.14 41.295 23.111 44.191 20.701 47.692C20.4848 48.0096 20.1937 48.2691 19.8534 48.4475C19.5131 48.6259 19.1342 48.7178 18.75 48.715Z" fill="#FECB00" stroke="#171718" stroke-width="1.5" stroke-miterlimit="10"/>
<path d="M15.2561 10.8001H26.719C28.157 10.8001 28.9501 11.4001 28.9501 12.2881C28.9287 12.7734 28.7984 13.2478 28.569 13.6761L26.2801 18.1921C26.0062 18.8046 25.5475 19.3161 24.9682 19.6547C24.3889 19.9933 23.7182 20.1421 23.05 20.0801H16.5601L14.527 24.0511H8.55L15.2561 10.8001ZM17.636 17.8451H19.8671C20.1208 17.8717 20.3766 17.8186 20.5989 17.6932C20.8211 17.5677 20.9987 17.3761 21.107 17.1451L22.747 13.9711C22.8357 13.8186 22.8868 13.6472 22.896 13.4711C22.896 13.2231 22.696 13.0251 22.251 13.0251H20.07L17.636 17.8451Z" fill="#171718"/>
</g>
<defs>
<clipPath id="clip0_11_2">
<rect width="37.5" height="50.428" fill="white"/>
</clipPath>
</defs>
</svg>
