<svg width="64" height="51" viewBox="0 0 64 51" fill="none" xmlns="http://www.w3.org/2000/svg">
<g clip-path="url(#clip0_14_16)">
<path d="M7.05375 40.9744V40.2244H6.30375H4.72781C2.53188 40.2244 0.75 38.4425 0.75 36.2466V4.72781C0.75 2.53188 2.53188 0.75 4.72781 0.75H36.2466C38.4425 0.75 40.2244 2.53188 40.2244 4.72781V9.45563V10.2056H40.9744H45.9681C47.4454 10.2056 48.8596 10.7878 49.8997 11.8278L57.5134 19.4416C58.5535 20.4817 59.1356 21.8959 59.1356 23.3731V25.215V28.3669V34.6706V35.4206H59.8856C61.2148 35.4206 62.2875 36.4933 62.2875 37.8225C62.2875 39.1517 61.2148 40.2244 59.8856 40.2244H56.7337H55.9837V40.9744C55.9837 45.7805 52.0842 49.68 47.2781 49.68C42.472 49.68 38.5725 45.7805 38.5725 40.9744V40.2244H37.8225H25.215H24.465V40.9744C24.465 45.7805 20.5655 49.68 15.7594 49.68C10.9533 49.68 7.05375 45.7805 7.05375 40.9744ZM40.9744 15.0094H40.2244V15.7594V25.215V25.965H40.9744H53.5819H54.3319V25.215V23.3731V23.0625L54.1122 22.8428L46.4985 15.229L46.2788 15.0094H45.9681H40.9744ZM11.886 37.101C10.8587 38.1283 10.2816 39.5216 10.2816 40.9744C10.2816 42.4272 10.8587 43.8205 11.886 44.8478C12.9133 45.8751 14.3066 46.4522 15.7594 46.4522C17.2122 46.4522 18.6055 45.8751 19.6328 44.8478C20.6601 43.8205 21.2372 42.4272 21.2372 40.9744C21.2372 39.5216 20.6601 38.1283 19.6328 37.101C18.6055 36.0737 17.2122 35.4966 15.7594 35.4966C14.3066 35.4966 12.9133 36.0737 11.886 37.101ZM51.1515 37.101C50.1242 36.0737 48.7309 35.4966 47.2781 35.4966C45.8253 35.4966 44.432 36.0737 43.4047 37.101C42.3774 38.1283 41.8003 39.5216 41.8003 40.9744C41.8003 42.4272 42.3774 43.8205 43.4047 44.8478C44.432 45.8751 45.8253 46.4522 47.2781 46.4522C48.7309 46.4522 50.1242 45.8751 51.1515 44.8478C52.1788 43.8205 52.7559 42.4272 52.7559 40.9744C52.7559 39.5216 52.1788 38.1283 51.1515 37.101Z" fill="#FECB00" stroke="#171718" stroke-width="1.5"/>
</g>
<defs>
<clipPath id="clip0_14_16">
<rect width="63.0375" height="50.43" fill="white"/>
</clipPath>
</defs>
</svg>
